<svg width="27" height="24" viewBox="0 0 27 24" fill="none" xmlns="http://www.w3.org/2000/svg">
<path d="M25.65 0H1.35C0.991957 0 0.648579 0.140476 0.395405 0.390524C0.142231 0.640573 0 0.979711 0 1.33333V22.6667C0 23.0203 0.142231 23.3594 0.395405 23.6095C0.648579 23.8595 0.991957 24 1.35 24H25.65C26.008 24 26.3514 23.8595 26.6046 23.6095C26.8578 23.3594 27 23.0203 27 22.6667V1.33333C27 0.979711 26.8578 0.640573 26.6046 0.390524C26.3514 0.140476 26.008 0 25.65 0ZM18.9 2.66667H24.3V21.3333H18.9V2.66667ZM16.2 2.66667V21.3333H2.7V2.66667H16.2Z" fill="#1C1C1C"/>
</svg>
