<svg width="32" height="29" viewBox="0 0 32 29" fill="none" xmlns="http://www.w3.org/2000/svg">
<path d="M29.8387 0C30.2498 0 30.644 0.169742 30.9347 0.471883C31.2254 0.774025 31.3887 1.18382 31.3887 1.61111V27.3889C31.3887 27.8162 31.2254 28.226 30.9347 28.5281C30.644 28.8303 30.2498 29 29.8387 29H1.93867C1.52759 29 1.13334 28.8303 0.842656 28.5281C0.551975 28.226 0.388672 27.8162 0.388672 27.3889V1.61111C0.388672 1.18382 0.551975 0.774025 0.842656 0.471883C1.13334 0.169742 1.52759 0 1.93867 0H29.8387ZM28.2887 3.22222H3.48867V25.7778H28.2887V3.22222ZM17.4387 22.5556V19.3333H22.0887V14.5H25.1887V22.5556H17.4387ZM14.3387 6.44444V9.66667H9.68867V14.5H6.58867V6.44444H14.3387Z" fill="#1C1C1C"/>
</svg>
