<svg width="28" height="29" viewBox="0 0 28 29" fill="none" xmlns="http://www.w3.org/2000/svg">
<path d="M1.75856 21.7487C1.16644 20.6889 0.706163 19.5559 0.388672 18.3766C1.07965 18.0129 1.65994 17.4584 2.06536 16.7745C2.47077 16.0906 2.6855 15.304 2.68579 14.5016C2.68608 13.6993 2.47192 12.9125 2.067 12.2283C1.66208 11.5441 1.08219 10.9891 0.391473 10.6248C1.02464 8.25521 2.23022 6.09142 3.89464 4.3373C4.5447 4.77473 5.29901 5.01747 6.0741 5.03866C6.8492 5.05986 7.61484 4.85868 8.28631 4.45739C8.95778 4.0561 9.50888 3.47036 9.87863 2.76497C10.2484 2.05959 10.4224 1.26208 10.3813 0.460693C12.6814 -0.154545 15.095 -0.153547 17.3946 0.463593C17.354 1.26496 17.5283 2.06235 17.8983 2.76754C18.2683 3.47272 18.8197 4.05819 19.4913 4.45917C20.1629 4.86015 20.9285 5.061 21.7036 5.03949C22.4786 5.01798 23.2328 4.77496 23.8827 4.3373C24.6937 5.19265 25.4137 6.16543 26.0188 7.25129C26.6253 8.33714 27.0791 9.46939 27.3887 10.6234C26.6977 10.9871 26.1174 11.5416 25.712 12.2255C25.3066 12.9094 25.0918 13.696 25.0916 14.4984C25.0913 15.3007 25.3054 16.0875 25.7103 16.7717C26.1153 17.4559 26.6952 18.0109 27.3859 18.3752C26.7527 20.7448 25.5471 22.9086 23.8827 24.6627C23.2326 24.2253 22.4783 23.9825 21.7032 23.9613C20.9281 23.9401 20.1625 24.1413 19.491 24.5426C18.8196 24.9439 18.2685 25.5296 17.8987 26.235C17.529 26.9404 17.355 27.7379 17.396 28.5393C15.0959 29.1545 12.6823 29.1535 10.3827 28.5364C10.4234 27.735 10.2491 26.9376 9.87904 26.2325C9.50901 25.5273 8.95769 24.9418 8.28609 24.5408C7.61449 24.1399 6.8488 23.939 6.07375 23.9605C5.2987 23.982 4.54451 24.225 3.89464 24.6627C3.06681 23.7884 2.34909 22.8093 1.75856 21.7487ZM9.68655 22.0329C11.1792 22.9239 12.3015 24.3539 12.8381 26.0486C13.5371 26.1168 14.2388 26.1182 14.9378 26.0501C15.4748 24.3551 16.5976 22.9251 18.0908 22.0343C19.5828 21.1408 21.3412 20.8491 23.0283 21.2152C23.4345 20.6237 23.7847 19.9931 24.076 19.3334C22.9266 18.0047 22.2917 16.2835 22.2929 14.5C22.2929 12.6733 22.9512 10.967 24.076 9.66656C23.7826 9.00714 23.4309 8.37721 23.0255 7.78479C21.3394 8.15058 19.5822 7.85942 18.0908 6.96714C16.5982 6.07609 15.4759 4.64608 14.9392 2.95135C14.2402 2.88321 13.5385 2.88176 12.8395 2.9499C12.3025 4.64486 11.1797 6.07491 9.68655 6.96569C8.1945 7.85919 6.43619 8.15088 4.74907 7.78479C4.34366 8.3767 3.99287 9.00673 3.70134 9.66656C4.85072 10.9953 5.48568 12.7165 5.48444 14.5C5.48444 16.3267 4.82611 18.033 3.70134 19.3334C3.99475 19.9929 4.34642 20.6228 4.75187 21.2152C6.43792 20.8494 8.19509 21.1406 9.68655 22.0329ZM13.8887 18.8492C12.7742 18.8492 11.7054 18.391 10.9173 17.5754C10.1293 16.7597 9.68655 15.6535 9.68655 14.5C9.68655 13.3465 10.1293 12.2403 10.9173 11.4246C11.7054 10.609 12.7742 10.1508 13.8887 10.1508C15.0031 10.1508 16.072 10.609 16.86 11.4246C17.6481 12.2403 18.0908 13.3465 18.0908 14.5C18.0908 15.6535 17.6481 16.7597 16.86 17.5754C16.072 18.391 15.0031 18.8492 13.8887 18.8492ZM13.8887 15.9497C14.2602 15.9497 14.6164 15.797 14.8791 15.5251C15.1418 15.2532 15.2894 14.8845 15.2894 14.5C15.2894 14.1155 15.1418 13.7468 14.8791 13.4749C14.6164 13.203 14.2602 13.0503 13.8887 13.0503C13.5172 13.0503 13.1609 13.203 12.8982 13.4749C12.6355 13.7468 12.488 14.1155 12.488 14.5C12.488 14.8845 12.6355 15.2532 12.8982 15.5251C13.1609 15.797 13.5172 15.9497 13.8887 15.9497Z" fill="#1C1C1C"/>
</svg>
