<svg width="22" height="29" viewBox="0 0 22 29" fill="none" xmlns="http://www.w3.org/2000/svg">
<path d="M15.9216 14.5L3.79356 6.32982V22.6702L15.9216 14.5ZM21.5778 15.2973L1.4738 28.8395C1.33098 28.9355 1.16506 28.9906 0.993706 28.9989C0.822353 29.0072 0.651985 28.9684 0.500748 28.8865C0.349511 28.8047 0.223068 28.683 0.134887 28.5343C0.0467054 28.3856 8.86183e-05 28.2156 0 28.0422V0.957772C8.86183e-05 0.784437 0.0467054 0.614372 0.134887 0.465689C0.223068 0.317007 0.349511 0.195276 0.500748 0.113461C0.651985 0.0316466 0.822353 -0.0071877 0.993706 0.00109479C1.16506 0.00937727 1.33098 0.0644667 1.4738 0.160495L21.5778 13.7027C21.7076 13.7902 21.8141 13.9088 21.8878 14.0479C21.9615 14.187 22 14.3423 22 14.5C22 14.6577 21.9615 14.813 21.8878 14.9521C21.8141 15.0912 21.7076 15.2098 21.5778 15.2973Z" fill="#1C1C1C"/>
</svg>
