<svg width="259" height="42" viewBox="0 0 259 42" fill="none" xmlns="http://www.w3.org/2000/svg">
<path d="M0.128204 0.999999H8.47195L17.2845 22.5H17.6595L26.472 0.999999H34.8157V33H28.2532V12.1719H27.9876L19.7063 32.8437H15.2376L6.95633 12.0937H6.6907V33H0.128204V0.999999ZM51.1087 33.4688C48.6816 33.4688 46.5826 32.9531 44.8118 31.9219C43.0514 30.8802 41.692 29.4323 40.7337 27.5781C39.7753 25.7135 39.2962 23.5521 39.2962 21.0937C39.2962 18.6146 39.7753 16.4479 40.7337 14.5937C41.692 12.7292 43.0514 11.2812 44.8118 10.25C46.5826 9.20833 48.6816 8.6875 51.1087 8.6875C53.5358 8.6875 55.6295 9.20833 57.3899 10.25C59.1608 11.2812 60.5253 12.7292 61.4837 14.5937C62.442 16.4479 62.9212 18.6146 62.9212 21.0937C62.9212 23.5521 62.442 25.7135 61.4837 27.5781C60.5253 29.4323 59.1608 30.8802 57.3899 31.9219C55.6295 32.9531 53.5358 33.4688 51.1087 33.4688ZM51.1399 28.3125C52.2441 28.3125 53.166 28 53.9055 27.375C54.6451 26.7396 55.2024 25.875 55.5774 24.7812C55.9628 23.6875 56.1555 22.4427 56.1555 21.0469C56.1555 19.651 55.9628 18.4063 55.5774 17.3125C55.2024 16.2187 54.6451 15.3542 53.9055 14.7187C53.166 14.0833 52.2441 13.7656 51.1399 13.7656C50.0253 13.7656 49.0878 14.0833 48.3274 14.7187C47.5774 15.3542 47.0097 16.2187 46.6243 17.3125C46.2493 18.4063 46.0618 19.651 46.0618 21.0469C46.0618 22.4427 46.2493 23.6875 46.6243 24.7812C47.0097 25.875 47.5774 26.7396 48.3274 27.375C49.0878 28 50.0253 28.3125 51.1399 28.3125ZM73.6087 24.2187L82.2493 9H88.8118V33H82.468V17.7344L73.8587 33H67.2493V9H73.6087V24.2187ZM81.1087 0.624998H85.7493C85.7389 2.52083 85.0358 4.04687 83.6399 5.20312C82.2545 6.35937 80.3795 6.9375 78.0149 6.9375C75.6399 6.9375 73.7597 6.35937 72.3743 5.20312C70.9889 4.04687 70.2962 2.52083 70.2962 0.624998H74.9055C74.8951 1.34375 75.1243 1.98958 75.593 2.5625C76.0722 3.13542 76.8795 3.42187 78.0149 3.42187C79.1191 3.42187 79.9108 3.14062 80.3899 2.57812C80.8691 2.01562 81.1087 1.36458 81.1087 0.624998Z" fill="#FF5722"/>
<path d="M94.2727 0.999999H102.616L111.429 22.5H111.804L120.616 0.999999H128.96V33H122.398V12.1719H122.132L113.851 32.8437H109.382L101.101 12.0937H100.835V33H94.2727V0.999999ZM141.253 33.4531C139.722 33.4531 138.357 33.1875 137.159 32.6562C135.962 32.1146 135.014 31.3177 134.316 30.2656C133.628 29.2031 133.284 27.8802 133.284 26.2969C133.284 24.9635 133.529 23.8437 134.019 22.9375C134.508 22.0313 135.175 21.3021 136.019 20.75C136.863 20.1979 137.821 19.7812 138.894 19.5C139.977 19.2187 141.113 19.0208 142.3 18.9062C143.696 18.7604 144.821 18.625 145.675 18.5C146.529 18.3646 147.149 18.1667 147.534 17.9062C147.92 17.6458 148.113 17.2604 148.113 16.75V16.6562C148.113 15.6667 147.8 14.901 147.175 14.3594C146.56 13.8177 145.685 13.5469 144.55 13.5469C143.352 13.5469 142.399 13.8125 141.691 14.3437C140.982 14.8646 140.514 15.5208 140.284 16.3125L134.128 15.8125C134.441 14.3542 135.055 13.0937 135.972 12.0312C136.889 10.9583 138.071 10.1354 139.519 9.5625C140.977 8.97917 142.665 8.6875 144.581 8.6875C145.915 8.6875 147.191 8.84375 148.409 9.15625C149.639 9.46875 150.727 9.95312 151.675 10.6094C152.633 11.2656 153.389 12.1094 153.941 13.1406C154.493 14.1615 154.769 15.3854 154.769 16.8125V33H148.456V29.6719H148.269C147.883 30.4219 147.368 31.0833 146.722 31.6562C146.076 32.2187 145.3 32.6615 144.394 32.9844C143.488 33.2969 142.441 33.4531 141.253 33.4531ZM143.159 28.8594C144.139 28.8594 145.003 28.6667 145.753 28.2812C146.503 27.8854 147.092 27.3542 147.519 26.6875C147.946 26.0208 148.159 25.2656 148.159 24.4219V21.875C147.951 22.0104 147.665 22.1354 147.3 22.25C146.946 22.3542 146.545 22.4531 146.097 22.5469C145.649 22.6302 145.201 22.7083 144.753 22.7812C144.305 22.8437 143.899 22.901 143.534 22.9531C142.753 23.0677 142.071 23.25 141.488 23.5C140.904 23.75 140.451 24.0885 140.128 24.5156C139.805 24.9323 139.644 25.4531 139.644 26.0781C139.644 26.9844 139.972 27.6771 140.628 28.1562C141.295 28.625 142.139 28.8594 143.159 28.8594ZM159.933 42V9H166.495V13.0312H166.792C167.084 12.3854 167.506 11.7292 168.058 11.0625C168.62 10.3854 169.35 9.82292 170.245 9.375C171.152 8.91667 172.277 8.6875 173.62 8.6875C175.37 8.6875 176.985 9.14583 178.464 10.0625C179.943 10.9687 181.126 12.3385 182.011 14.1719C182.896 15.9948 183.339 18.2812 183.339 21.0312C183.339 23.7083 182.907 25.9687 182.042 27.8125C181.188 29.6458 180.021 31.0365 178.542 31.9844C177.074 32.9219 175.428 33.3906 173.605 33.3906C172.313 33.3906 171.214 33.1771 170.308 32.75C169.412 32.3229 168.678 31.7865 168.105 31.1406C167.532 30.4844 167.094 29.8229 166.792 29.1562H166.589V42H159.933ZM166.449 21C166.449 22.4271 166.646 23.6719 167.042 24.7344C167.438 25.7969 168.011 26.625 168.761 27.2187C169.511 27.8021 170.422 28.0937 171.495 28.0937C172.579 28.0937 173.495 27.7969 174.245 27.2031C174.995 26.599 175.563 25.7656 175.949 24.7031C176.344 23.6302 176.542 22.3958 176.542 21C176.542 19.6146 176.35 18.3958 175.964 17.3437C175.579 16.2917 175.011 15.4687 174.261 14.875C173.511 14.2812 172.589 13.9844 171.495 13.9844C170.412 13.9844 169.495 14.2708 168.745 14.8437C168.006 15.4167 167.438 16.2292 167.042 17.2812C166.646 18.3333 166.449 19.5729 166.449 21ZM187.777 33V9H194.433V18.3125H196.308L202.839 9H210.652L202.167 20.9062L210.745 33H202.839L196.917 24.4844H194.433V33H187.777ZM223.507 33.4688C221.038 33.4688 218.913 32.9688 217.132 31.9688C215.361 30.9583 213.997 29.5312 213.038 27.6875C212.08 25.8333 211.601 23.6406 211.601 21.1094C211.601 18.6406 212.08 16.474 213.038 14.6094C213.997 12.7448 215.346 11.2917 217.085 10.25C218.835 9.20833 220.887 8.6875 223.241 8.6875C224.825 8.6875 226.299 8.94271 227.663 9.45312C229.038 9.95312 230.236 10.7083 231.257 11.7187C232.288 12.7292 233.09 14 233.663 15.5312C234.236 17.0521 234.523 18.8333 234.523 20.875V22.7031H214.257V18.5781H228.257C228.257 17.6198 228.049 16.7708 227.632 16.0313C227.215 15.2917 226.637 14.7135 225.898 14.2969C225.169 13.8698 224.32 13.6562 223.351 13.6562C222.34 13.6562 221.445 13.8906 220.663 14.3594C219.893 14.8177 219.288 15.4375 218.851 16.2187C218.413 16.9896 218.189 17.849 218.179 18.7969V22.7187C218.179 23.9062 218.398 24.9323 218.835 25.7969C219.283 26.6615 219.913 27.3281 220.726 27.7969C221.538 28.2656 222.502 28.5 223.616 28.5C224.356 28.5 225.033 28.3958 225.648 28.1875C226.262 27.9792 226.788 27.6667 227.226 27.25C227.663 26.8333 227.997 26.3229 228.226 25.7188L234.382 26.125C234.07 27.6042 233.429 28.8958 232.46 30C231.502 31.0937 230.262 31.9479 228.741 32.5625C227.231 33.1667 225.486 33.4688 223.507 33.4688ZM237.015 14.2344V9H258.765V14.2344H251.031V33H244.687V14.2344H237.015Z" fill="black"/>
</svg>
